<svg role="img">
  <symbol id="html" xmlns="http://www.w3.org/2000/svg" viewBox="0 0 452 520">
    <path fill="#e34f26" d="M41 460L0 0h451l-41 460-185 52" />
    <path fill="#ef652a" d="M226 472l149-41 35-394H226" />
    <path fill="#ecedee" d="M226 208h-75l-5-58h80V94H84l15 171h127zm0 147l-64-17-4-45h-56l7 89 117 32z"/>
    <path fill="#fff" d="M226 265h69l-7 73-62 17v59l115-32 16-174H226zm0-171v56h136l5-56z"/>
  </symbol>
  <symbol id="javascript" xmlns="http://www.w3.org/2000/svg" viewBox="0 0 1052 1052">
    <path fill="#f0db4f" d="M0 0h1052v1052H0z" />
    <path d="M965.9 801.1c-7.7-48-39-88.3-131.7-125.9-32.2-14.8-68.1-25.399-78.8-49.8-3.8-14.2-4.3-22.2-1.9-30.8 6.9-27.9 40.2-36.6 66.6-28.6 17 5.7 33.1 18.801 42.8 39.7 45.4-29.399 45.3-29.2 77-49.399-11.6-18-17.8-26.301-25.4-34-27.3-30.5-64.5-46.2-124-45-10.3 1.3-20.699 2.699-31 4-29.699 7.5-58 23.1-74.6 44-49.8 56.5-35.6 155.399 25 196.1 59.7 44.8 147.4 55 158.6 96.9 10.9 51.3-37.699 67.899-86 62-35.6-7.4-55.399-25.5-76.8-58.4-39.399 22.8-39.399 22.8-79.899 46.1 9.6 21 19.699 30.5 35.8 48.7 76.2 77.3 266.899 73.5 301.1-43.5 1.399-4.001 10.6-30.801 3.199-72.101zm-394-317.6h-98.4c0 85-.399 169.4-.399 254.4 0 54.1 2.8 103.7-6 118.9-14.4 29.899-51.7 26.2-68.7 20.399-17.3-8.5-26.1-20.6-36.3-37.699-2.8-4.9-4.9-8.7-5.601-9-26.699 16.3-53.3 32.699-80 49 13.301 27.3 32.9 51 58 66.399 37.5 22.5 87.9 29.4 140.601 17.3 34.3-10 63.899-30.699 79.399-62.199 22.4-41.3 17.6-91.3 17.4-146.6.5-90.2 0-180.4 0-270.9z" fill="#161513" />
  </symbol>
  <symbol id="php" viewBox="0 -61 256 256" xmlns="http://www.w3.org/2000/svg" preserveAspectRatio="xMinYMin meet" fill="#000000">
    <g id="SVGRepo_bgCarrier" stroke-width="0"></g>
    <g id="SVGRepo_tracerCarrier" stroke-linecap="round" stroke-linejoin="round"></g>
    <g id="SVGRepo_iconCarrier">
      <g fill-rule="evenodd">
        <ellipse fill="#8993BE" cx="128" cy="66.63" rx="128" ry="66.63"></ellipse>
        <path d="M35.945 106.082l14.028-71.014H82.41c14.027.877 21.041 7.89 21.041 20.165 0 21.041-16.657 33.315-31.562 32.438H56.11l-3.507 18.411H35.945zm23.671-31.561L64 48.219h11.397c6.137 0 10.52 2.63 10.52 7.89-.876 14.905-7.89 17.535-15.78 18.412h-10.52zM100.192 87.671l14.027-71.013h16.658l-3.507 18.41h15.78c14.028.877 19.288 7.89 17.535 16.658l-6.137 35.945h-17.534l6.137-32.438c.876-4.384.876-7.014-5.26-7.014H124.74l-7.89 39.452h-16.658zM153.425 106.082l14.027-71.014h32.438c14.028.877 21.042 7.89 21.042 20.165 0 21.041-16.658 33.315-31.562 32.438h-15.781l-3.507 18.411h-16.657zm23.67-31.561l4.384-26.302h11.398c6.137 0 10.52 2.63 10.52 7.89-.876 14.905-7.89 17.535-15.78 18.412h-10.521z" fill="#161513"></path>
      </g>
    </g>
  </symbol>
  <symbol id="wordpress" xmlns="http://www.w3.org/2000/svg" viewBox="0 0 48 48">
    <path fill="#00759D" fill-rule="evenodd" d="M0 24a24 24 0 0 0 13.5 21.6L2.1 14.2A24 24 0 0 0 0 24Zm40.2-1.2c0-3-1-5-2-6.6-1.2-2-2.3-3.7-2.3-5.7 0-2.2 1.6-4.2 4-4.2h.3A24 24 0 0 0 4 10.8a50 50 0 0 0 8-.3c1.3 0 1.4 1.9.1 2 0 0-1.3.2-2.7.2l8.7 26L23.3 23l-3.8-10.3-2.5-.2c-1.3 0-1.1-2 .2-2a108.5 108.5 0 0 0 12.7 0c1.3 0 1.4 1.9.2 2 0 0-1.3.2-2.8.2L36 38.5l2.4-8c1-3.3 1.8-5.7 1.8-7.7Zm4.9-10.3.1 2.5c0 2.4-.4 5.1-1.8 8.5l-7.3 21.2a24 24 0 0 0 9-32.2ZM24.4 26l-7.2 21a24 24 0 0 0 14.8-.5l-.2-.3-7.4-20.2Z" />
  </symbol>
  <symbol id="typescript" xmlns="http://www.w3.org/2000/svg" viewBox="0 0 32 32">
    <rect width="28" height="28" x="2" y="2" rx="1.3" style="fill:#3178c6" />
    <path d="M18.2 23.8v3a6.5 6.5 0 0 0 1.8.6 11.6 11.6 0 0 0 2.2.2 10 10 0 0 0 2-.2 5.1 5.1 0 0 0 1.8-.7 3.5 3.5 0 0 0 1.2-1.3 4.5 4.5 0 0 0 .1-3.4 3.4 3.4 0 0 0-.7-1 5.2 5.2 0 0 0-1-1 12 12 0 0 0-1.6-.7l-1-.5a5.5 5.5 0 0 1-.9-.5 2 2 0 0 1-.5-.5 1 1 0 0 1-.2-.6 1 1 0 0 1 .2-.6 1.4 1.4 0 0 1 .5-.4 2.4 2.4 0 0 1 .7-.3 4.2 4.2 0 0 1 1 0 6 6 0 0 1 .7 0 6.3 6.3 0 0 1 .9.1 6 6 0 0 1 .8.3 4.7 4.7 0 0 1 .8.5v-2.9a7.5 7.5 0 0 0-1.5-.4 12.4 12.4 0 0 0-2-.1 8.8 8.8 0 0 0-2 .2 5.2 5.2 0 0 0-1.7.7 3.7 3.7 0 0 0-1.2 1.3 3.7 3.7 0 0 0-.4 1.9 3.6 3.6 0 0 0 .8 2.3 6 6 0 0 0 2.4 1.6l1.1.5a6.5 6.5 0 0 1 1 .6 2.5 2.5 0 0 1 .6.5 1.2 1.2 0 0 1 .2.8 1.1 1.1 0 0 1-.1.5 1.3 1.3 0 0 1-.4.5 2.4 2.4 0 0 1-.8.2 4.4 4.4 0 0 1-1 .2 5.8 5.8 0 0 1-2-.4 5.9 5.9 0 0 1-1.8-1ZM13.1 16h4v-2.5H5.9V16h4v11.3h3.2Z" style="fill:#ff161513f;fill-rule:evenodd" />
  </symbol>
  <symbol id="css" xmlns="http://www.w3.org/2000/svg" fill="none" viewBox="0 0 32 32">
    <path fill="#1172B8" d="M6 28 4 3h24l-2 25-10 3-10-3Z" />
    <path fill="#3AD" d="M26 5H16v24.5l8-2.5 2-22Z" />
    <path fill="#fff" d="M19.5 17.5h-10L9 14l8-2.5H9l-.5-3H24l-.5 3.5-6.5 2.5h6L22 24l-6 2-6-2-.5-5h3l.5 2.5 3 1 3-1 .5-4Z" />
  </symbol>
  <symbol id="vue" xmlns="http://www.w3.org/2000/svg" viewBox="0 0 32 32">
    <path d="M24.4 4H30L16 28 2 4h10.7L16 9.4 19.2 4Z" style="fill:#41b883" />
    <path d="m2 4 14 24L30 4h-5.6L16 18.3 7.5 4Z" style="fill:#41b883" />
    <path d="M7.5 4 16 18.4l8.4-14.6h-5.2L16 9.5 12.7 4Z" style="fill:#35495e" />
  </symbol>
  <symbol id="menu-line" xmlns="http://www.w3.org/2000/svg" fill="none" viewBox="0 0 24 24">
    <g stroke="#fff" stroke-linecap="round" stroke-linejoin="round" stroke-width="2">
      <path d="M6 8h12M6 12h12M6 16h12" />
    </g>
  </symbol>
  <symbol id="line-top-arrow" xmlns="http://www.w3.org/2000/svg" data-name="Flat Color" viewBox="0 0 24 24">
    <path d="M19 4h-4a1 1 0 0 0 0 2h1.6L4.3 18.3a1 1 0 0 0 0 1.4 1 1 0 0 0 1.4 0L18 7.4V9a1 1 0 0 0 2 0V5a1 1 0 0 0-1-1Z" style="fill:#fff" />
  </symbol>
  <symbol id="arrow-right" xmlns="http://www.w3.org/2000/svg" fill="currentColor" stroke="currentColor" viewBox="0 0 24 24">
    <path d="M16.7 18.7a1 1 0 0 1-1.4-1.4l4.3-4.3H2a1 1 0 0 1 0-2h17.6l-4.3-4.3a1 1 0 0 1 1.4-1.4l6 6a1 1 0 0 1 0 1.4Z" />
  </symbol>
  <symbol id="mail" xmlns="http://www.w3.org/2000/svg" viewBox="0 0 20 20">
    <path fill="var(--primary-color-light)" stroke-width="1" fill-rule="evenodd" d="m18 4-8 7-8-7V2h16v2ZM2 18V6.6l8 7 8-7V18H2Zm-2 2h20V0H0v20Z" />
  </symbol>
  <symbol id="linkedin" xmlns="http://www.w3.org/2000/svg" xml:space="preserve" viewBox="-143 145 512 512" fill="var(--primary-color-light)">
    <path d="M329 145h-432a40 40 0 0 0-40 40v432a40 40 0 0 0 40 40h432a40 40 0 0 0 40-40V185a40 40 0 0 0-40-40zm10 472a10 10 0 0 1-10 10h-432a10 10 0 0 1-10-10V185a10 10 0 0 1 10-10h432a10 10 0 0 1 10 10v432z" />
    <path d="M-8.5 348.4h49.9v159.7H-8.5zM177.7 346.9c-28.6 0-46.5 15.6-49.8 26.6v-25.1H71.8c.7 13.3 0 159.7 0 159.7h56.1v-86.3c0-4.9-.2-9.7 1.2-13.1 3.8-9.6 12.1-19.6 27-19.6 19.5 0 28.3 14.8 28.3 36.4v82.6H241v-88.8c0-49.4-27.8-72.4-63.3-72.4zM15.4 273c-18.4 0-30.5 11.9-30.5 27.7 0 15.5 11.7 27.7 29.8 27.7h.4c18.8 0 30.5-12.3 30.4-27.7-.4-15.8-11.7-27.7-30.1-27.7z" />
  </symbol>
  <symbol id="github" xmlns="http://www.w3.org/2000/svg" class="cf-icon-svg" viewBox="-1.5 0 19 19" fill="var(--primary-color-light)">
    <path d="M16 1.7v15.8h-5.2c-.5 0-.6-.2-.6-.5v-2.2a2 2 0 0 0-.5-1.5c1.8-.2 3.7-.9 3.7-4a3.1 3.1 0 0 0-.9-2.2 3 3 0 0 0 0-2.1s-.7-.2-2.3.8a7.7 7.7 0 0 0-4 0C4.6 4.8 3.9 5 3.9 5A3 3 0 0 0 4 7 3.1 3.1 0 0 0 3 9.3c0 3.1 2 3.8 3.7 4a1.7 1.7 0 0 0-.5 1.1 1.7 1.7 0 0 1-2.4-.7 1.7 1.7 0 0 0-1.2-.8s-.8 0 0 .5a2.1 2.1 0 0 1 .8 1.2s.5 1.6 2.8 1V17c0 .3-.2.5-.6.5H.1V1.7z" />
  </symbol>
  <symbol id="arrow-left" viewBox="0 0 24 24" fill="none" stroke="currentColor" style="--darkreader-inline-stroke:#e8e6e3"><path d="M5 12h14M5 12l6-6m-6 6 6 6" stroke-width="2" stroke-linecap="round" stroke-linejoin="round" style="--darkreader-inline-stroke:#e8e6e3"/></symbol>
  <symbol id="linux" fill="#ffffff" xmlns="http://www.w3.org/2000/svg" xmlns:xlink="http://www.w3.org/1999/xlink" x="0px" y="0px"
	 viewBox="0 0 512 512" style="enable-background:new 0 0 512 512;" xml:space="preserve">
    <g>
      <path d="M253.1,139.4c0.9,0.4,1.6,1.5,2.6,1.5c1,0,2.5-0.4,2.5-1.3c0.2-1.2-1.7-2-2.8-2.5c-1.5-0.6-3.4-0.9-4.8-0.1
        c-0.4,0.2-0.7,0.6-0.5,1C250.4,139,252.1,138.8,253.1,139.4L253.1,139.4z M233.9,140.9c1.1,0,1.8-1.1,2.6-1.5
        c1-0.5,2.7-0.4,3.1-1.4c0.2-0.4-0.2-0.8-0.5-1c-1.4-0.8-3.3-0.5-4.8,0.1c-1.1,0.5-3,1.3-2.8,2.5C231.5,140.5,233,140.9,233.9,140.9
        z M428.2,385.9c-3.2-3.5-4.7-10.2-6.3-17.3c-1.6-7.1-3.4-14.8-9.2-19.7c-1.1-1-2.3-1.8-3.5-2.5c-1.1-0.7-2.4-1.3-3.6-1.8
        c8.1-24,4.9-47.9-3.3-69.5c-10-26.5-27.5-49.6-40.9-65.4c-15-18.9-29.6-36.8-29.4-63.3c0.4-40.3,4.5-115.3-66.6-115.4
        c-90-0.2-67.5,90.9-68.5,118.8c-1.5,20.6-5.6,36.7-19.8,56.9c-16.6,19.8-40,51.7-51.1,85c-5.3,15.7-7.7,31.7-5.4,46.8
        c-5.7,5.1-10,12.9-14.6,17.8c-3.7,3.8-9.1,5.2-14.9,7.3s-12.3,5.3-16.3,12.7c-1.8,3.4-2.5,7.1-2.5,10.9c0,3.4,0.5,6.9,1.1,10.4
        c1.1,7.1,2.2,13.8,0.7,18.3c-4.6,12.7-5.2,21.4-1.9,27.9c3.3,6.4,10,9.2,17.7,10.8c15.2,3.2,35.9,2.4,52.1,11
        c17.4,9.1,35.1,12.4,49.1,9.1c10.2-2.3,18.5-8.4,22.8-17.8c11-0.1,23.1-4.7,42.4-5.8c13.1-1.1,29.5,4.7,48.4,3.6
        c0.5,2,1.2,4,2.2,5.9v0.1c7.3,14.7,20.9,21.4,35.4,20.2c14.6-1.1,30-9.7,42.4-24.5c12-14.4,31.6-20.4,44.7-28.3
        c6.5-4,11.8-8.9,12.2-16.1C442.1,404.8,437.9,396.8,428.2,385.9L428.2,385.9z M255.6,107.7c8.6-19.5,30.1-19.2,38.7-0.4
        c5.7,12.5,3.2,27.2-3.8,35.5c-1.4-0.7-5.2-2.3-11.1-4.3c1-1.1,2.7-2.4,3.4-4c4.2-10.4-0.2-23.7-8-24c-6.4-0.4-12.2,9.5-10.4,20.2
        c-3.6-1.8-8.3-3.1-11.4-3.9C252.2,120.8,252.8,114,255.6,107.7z M219.9,97.6c8.9,0,18.3,12.5,16.8,29.4c-3.1,0.9-6.2,2.2-9,4
        c1.1-7.8-2.9-17.7-8.4-17.2c-7.4,0.6-8.6,18.6-1.6,24.7c0.9,0.7,1.7-0.2-5.2,4.8C198.8,130.6,203.3,97.6,219.9,97.6z M207.9,151
        c5.4-4,12-8.8,12.4-9.2c4.1-3.9,11.9-12.5,24.5-12.5c6.2,0,13.7,2,22.8,7.8c5.5,3.6,9.9,3.9,19.9,8.2c7.4,3.1,12,8.5,9.2,16
        c-2.3,6.2-9.7,12.7-19.9,15.9c-9.8,3.2-17.4,14.1-33.6,13.1c-3.4-0.2-6.2-0.9-8.4-1.8c-7-3.1-10.7-9.1-17.6-13.2
        c-7.6-4.2-11.6-9.1-12.9-13.4C203,157.5,204.2,153.9,207.9,151L207.9,151z M210.8,444.5c-2.4,30.8-38.6,30.2-66.2,15.8
        c-26.3-13.9-60.3-5.7-67.2-19.2c-2.1-4.1-2.1-11.2,2.3-23.2v-0.2c2.1-6.7,0.5-14.1-0.5-21c-1.1-6.9-1.6-13.2,0.8-17.6
        c3.1-5.9,7.5-8,13-9.9c9.1-3.3,10.4-3,17.2-8.7c4.8-5,8.3-11.3,12.6-15.8c4.5-4.8,8.8-7.1,15.6-6.1c7.1,1.1,13.3,6,19.2,14.1
        l17.2,31.3C183.1,401.4,212.7,426.5,210.8,444.5L210.8,444.5z M209.6,421.7c-3.6-5.8-8.4-12-12.7-17.2c6.2,0,12.5-1.9,14.7-7.8
        c2-5.4,0-13.1-6.5-21.9c-11.9-16-33.7-28.6-33.7-28.6c-11.9-7.4-18.5-16.4-21.6-26.3c-3.1-9.8-2.6-20.5-0.3-30.9
        c4.6-20.1,16.3-39.7,23.9-52c2-1.5,0.7,2.8-7.6,18.3c-7.5,14.1-21.4,46.8-2.3,72.4c0.5-18.2,4.8-36.7,12.1-54
        c10.5-24.1,32.8-65.8,34.5-99c1,0.7,4,2.8,5.4,3.6c4,2.4,7.1,5.9,11.1,9.1c10.9,8.8,25,8.1,37.3,1.1c5.4-3.1,9.8-6.6,14-7.9
        c8.7-2.7,15.6-7.6,19.6-13.2c6.8,26.7,22.6,65.3,32.7,84.1c5.4,10,16.1,31.2,20.7,56.8c2.9-0.1,6.2,0.4,9.6,1.2
        c12.1-31.4-10.3-65.2-20.5-74.6c-4.1-4-4.3-5.8-2.3-5.7c11.1,9.8,25.7,29.6,30.9,51.9c2.5,10.2,2.9,20.8,0.4,31.4
        c14.4,6,31.6,15.7,27,30.6c-1.9-0.1-2.8,0-3.7,0c2.8-8.9-3.4-15.5-20-22.9c-17.2-7.6-31.6-7.6-33.7,11c-10.6,3.7-16.1,12.9-18.8,24
        c-2.5,9.8-3.2,21.7-3.9,35.1c-0.4,6.8-3.2,15.8-6,25.5C281.8,435.5,242.6,444.3,209.6,421.7L209.6,421.7z M435.8,411.6
        c-0.8,14.8-36.2,17.5-55.5,40.9c-11.6,13.8-25.8,21.4-38.3,22.4c-12.5,1-23.3-4.2-29.6-17c-4.1-9.8-2.1-20.3,1-31.9
        c3.3-12.5,8.1-25.3,8.7-35.7c0.7-13.4,1.5-25,3.7-34c2.3-9.1,5.8-15.1,12-18.5c0.3-0.2,0.6-0.3,0.9-0.4
        c0.7,11.6,6.4,23.4,16.5,25.9c11.1,2.9,27-6.6,33.7-14.3c7.9-0.3,13.8-0.8,19.9,4.5c8.7,7.5,6.2,26.6,15,36.6
        C433.1,400.2,436.1,407.1,435.8,411.6L435.8,411.6z M211.4,161.7c1.8,1.7,4.1,4,7,6.2c5.8,4.6,13.9,9.3,24,9.3
        c10.2,0,19.8-5.2,27.9-9.5c4.3-2.3,9.6-6.2,13-9.1c3.4-3,5.2-5.5,2.7-5.8c-2.5-0.3-2.3,2.3-5.3,4.5c-3.9,2.8-8.5,6.5-12.2,8.6
        c-6.5,3.7-17.1,9-26.3,9c-9.1,0-16.4-4.2-21.9-8.5c-2.7-2.2-5-4.4-6.8-6.1c-1.3-1.2-1.7-4-3.8-4.3
        C208.6,155.9,208.3,159.2,211.4,161.7L211.4,161.7z"/>
    </g>
  </symbol>
</svg>